<svg width="100" height="100" viewBox="0 0 100 100" fill="none" xmlns="http://www.w3.org/2000/svg">
<rect width="100" height="100" fill="#FFDEAC"/>
<path d="M50 78L52.9268 77.8466L55.8215 77.3881L58.6525 76.6296L61.3886 75.5793L64 74.2487L66.458 72.6525L68.7357 70.8081L70.8081 68.7357L72.6525 66.458L74.2487 64L75.5793 61.3886L76.6296 58.6525L77.3881 55.8215L77.8466 52.9268L78 50L77.8466 47.0732L77.3881 44.1785L76.6296 41.3475L75.5793 38.6114L74.2487 36L72.6525 33.542L70.8081 31.2643L68.7357 29.1919L66.458 27.3475L64 25.7513L61.3886 24.4207L58.6525 23.3704L55.8215 22.6119L52.9268 22.1534L50 22L47.0732 22.1534L44.1785 22.6119L41.3475 23.3704L38.6114 24.4207L36 25.7513L33.542 27.3475L31.2643 29.1919L29.1919 31.2643L27.3475 33.542L25.7513 36L24.4207 38.6114L23.3704 41.3475L22.6119 44.1785L22.1534 47.0732L22 50L22.1534 52.9268L22.6119 55.8215L23.3704 58.6525L24.4207 61.3886L25.7513 64L27.3475 66.458L29.1919 68.7357L31.2643 70.8081L33.542 72.6525L36 74.2487L38.6114 75.5793L41.3475 76.6296L44.1785 77.3881L47.0732 77.8466L50 78Z" fill="url(#paint0_linear_1060_39)" fill-opacity="0.75"/>
<defs>
<linearGradient id="paint0_linear_1060_39" x1="50" y1="22" x2="50" y2="78" gradientUnits="userSpaceOnUse">
<stop stop-color="#FF9900"/>
<stop offset="1" stop-color="#FF9900" stop-opacity="0.5"/>
</linearGradient>
</defs>
</svg>
