<svg width="187" height="28" viewBox="0 0 187 28" fill="none" xmlns="http://www.w3.org/2000/svg">
<path d="M114.875 8.31348H124.293V10.7424H118.397V12.5501H123.867V14.8701H118.397V17.1118H124.463V19.6871H114.875V8.31348Z" fill="#0A2937" fill-opacity="0.3"/>
<path d="M125.839 8.31348H129.119L133.403 14.6045V8.31348H136.714V19.6888H133.403L129.141 13.4437V19.6888H125.837V8.31348H125.839Z" fill="#0A2937" fill-opacity="0.3"/>
<path d="M138.51 8.31348H142.025V16.8871H147.511V19.6888H138.51V8.31348Z" fill="#0A2937" fill-opacity="0.3"/>
<path d="M148.705 8.31348H152.227V19.6888H148.705V8.31348Z" fill="#0A2937" fill-opacity="0.3"/>
<path d="M153.723 8.31348H157.398L159.958 16.499L162.484 8.31348H166.051L161.828 19.6888H158.017L153.723 8.31348Z" fill="#0A2937" fill-opacity="0.3"/>
<path d="M164.744 8.31348H174.16V10.7424H168.268V12.5501H173.735V14.8701H168.268V17.1118H174.332V19.6871H164.744V8.31348Z" fill="#0A2937" fill-opacity="0.3"/>
<path d="M175.549 8.31348H178.832L183.113 14.6045V8.31348H186.425V19.6888H183.113L178.852 13.4437V19.6888H175.547V8.31348H175.549Z" fill="#0A2937" fill-opacity="0.3"/>
<path d="M111.376 11.3755H95.625V16.6231H111.376V11.3755Z" fill="#0A2937" fill-opacity="0.3"/>
<path d="M121.002 0H93V5.25106H121.002V0Z" fill="#0A2937" fill-opacity="0.3"/>
<path d="M121.002 22.7505H93V27.9998H121.002V22.7505Z" fill="#0A2937" fill-opacity="0.3"/>
<path d="M0.884 18V8.9H4.251C4.979 8.9 5.58133 9.02133 6.058 9.264C6.53467 9.50667 6.89 9.84033 7.124 10.265C7.358 10.6897 7.475 11.1663 7.475 11.695C7.475 12.1977 7.36233 12.6613 7.137 13.086C6.91167 13.502 6.56067 13.84 6.084 14.1C5.60733 14.3513 4.99633 14.477 4.251 14.477H2.548V18H0.884ZM2.548 13.125H4.147C4.72767 13.125 5.14367 12.9993 5.395 12.748C5.655 12.488 5.785 12.137 5.785 11.695C5.785 11.2443 5.655 10.8933 5.395 10.642C5.14367 10.382 4.72767 10.252 4.147 10.252H2.548V13.125ZM11.5054 18.156C10.8814 18.156 10.3181 18.013 9.81541 17.727C9.32141 17.441 8.92707 17.0467 8.63241 16.544C8.34641 16.0327 8.20341 15.4433 8.20341 14.776C8.20341 14.1087 8.35074 13.5237 8.64541 13.021C8.94007 12.5097 9.33441 12.111 9.82841 11.825C10.3311 11.539 10.8944 11.396 11.5184 11.396C12.1337 11.396 12.6884 11.539 13.1824 11.825C13.6851 12.111 14.0794 12.5097 14.3654 13.021C14.6601 13.5237 14.8074 14.1087 14.8074 14.776C14.8074 15.4433 14.6601 16.0327 14.3654 16.544C14.0794 17.0467 13.6851 17.441 13.1824 17.727C12.6797 18.013 12.1207 18.156 11.5054 18.156ZM11.5054 16.713C11.9387 16.713 12.3157 16.5527 12.6364 16.232C12.9571 15.9027 13.1174 15.4173 13.1174 14.776C13.1174 14.1347 12.9571 13.6537 12.6364 13.333C12.3157 13.0037 11.9431 12.839 11.5184 12.839C11.0764 12.839 10.6951 13.0037 10.3744 13.333C10.0624 13.6537 9.90641 14.1347 9.90641 14.776C9.90641 15.4173 10.0624 15.9027 10.3744 16.232C10.6951 16.5527 11.0721 16.713 11.5054 16.713ZM17.3277 18L15.4427 11.552H17.0937L18.2117 16.193L19.5117 11.552H21.3577L22.6577 16.193L23.7887 11.552H25.4397L23.5417 18H21.8127L20.4347 13.177L19.0567 18H17.3277ZM29.394 18.156C28.744 18.156 28.1677 18.0173 27.665 17.74C27.1623 17.4627 26.768 17.0727 26.482 16.57C26.196 16.0673 26.053 15.4867 26.053 14.828C26.053 14.1607 26.1917 13.567 26.469 13.047C26.755 12.527 27.145 12.124 27.639 11.838C28.1417 11.5433 28.731 11.396 29.407 11.396C30.0397 11.396 30.5987 11.5347 31.084 11.812C31.5693 12.0893 31.9463 12.4707 32.215 12.956C32.4923 13.4327 32.631 13.9657 32.631 14.555C32.631 14.6503 32.6267 14.75 32.618 14.854C32.618 14.958 32.6137 15.0663 32.605 15.179H27.704C27.7387 15.6817 27.912 16.076 28.224 16.362C28.5447 16.648 28.9303 16.791 29.381 16.791C29.719 16.791 30.0007 16.7173 30.226 16.57C30.46 16.414 30.6333 16.2147 30.746 15.972H32.436C32.3147 16.3793 32.111 16.752 31.825 17.09C31.5477 17.4193 31.201 17.6793 30.785 17.87C30.3777 18.0607 29.914 18.156 29.394 18.156ZM29.407 12.748C28.9997 12.748 28.64 12.865 28.328 13.099C28.016 13.3243 27.8167 13.671 27.73 14.139H30.941C30.915 13.7143 30.759 13.3763 30.473 13.125C30.187 12.8737 29.8317 12.748 29.407 12.748ZM34.0305 18V11.552H35.5125L35.6685 12.761C35.9025 12.345 36.2189 12.0157 36.6175 11.773C37.0249 11.5217 37.5015 11.396 38.0475 11.396V13.151H37.5795C37.2155 13.151 36.8905 13.2073 36.6045 13.32C36.3185 13.4327 36.0932 13.6277 35.9285 13.905C35.7725 14.1823 35.6945 14.568 35.6945 15.062V18H34.0305ZM42.2036 18.156C41.5536 18.156 40.9773 18.0173 40.4746 17.74C39.9719 17.4627 39.5776 17.0727 39.2916 16.57C39.0056 16.0673 38.8626 15.4867 38.8626 14.828C38.8626 14.1607 39.0013 13.567 39.2786 13.047C39.5646 12.527 39.9546 12.124 40.4486 11.838C40.9513 11.5433 41.5406 11.396 42.2166 11.396C42.8493 11.396 43.4083 11.5347 43.8936 11.812C44.3789 12.0893 44.7559 12.4707 45.0246 12.956C45.3019 13.4327 45.4406 13.9657 45.4406 14.555C45.4406 14.6503 45.4363 14.75 45.4276 14.854C45.4276 14.958 45.4233 15.0663 45.4146 15.179H40.5136C40.5483 15.6817 40.7216 16.076 41.0336 16.362C41.3543 16.648 41.7399 16.791 42.1906 16.791C42.5286 16.791 42.8103 16.7173 43.0356 16.57C43.2696 16.414 43.4429 16.2147 43.5556 15.972H45.2456C45.1243 16.3793 44.9206 16.752 44.6346 17.09C44.3573 17.4193 44.0106 17.6793 43.5946 17.87C43.1873 18.0607 42.7236 18.156 42.2036 18.156ZM42.2166 12.748C41.8093 12.748 41.4496 12.865 41.1376 13.099C40.8256 13.3243 40.6263 13.671 40.5396 14.139H43.7506C43.7246 13.7143 43.5686 13.3763 43.2826 13.125C42.9966 12.8737 42.6413 12.748 42.2166 12.748ZM49.8041 18.156C49.1975 18.156 48.6558 18.0087 48.1791 17.714C47.7025 17.4193 47.3255 17.0163 47.0481 16.505C46.7708 15.9937 46.6321 15.413 46.6321 14.763C46.6321 14.113 46.7708 13.5367 47.0481 13.034C47.3255 12.5227 47.7025 12.124 48.1791 11.838C48.6558 11.5433 49.1975 11.396 49.8041 11.396C50.2895 11.396 50.7141 11.487 51.0781 11.669C51.4421 11.851 51.7368 12.1067 51.9621 12.436V8.64H53.6261V18H52.1441L51.9621 17.077C51.7541 17.363 51.4768 17.6143 51.1301 17.831C50.7921 18.0477 50.3501 18.156 49.8041 18.156ZM50.1551 16.7C50.6925 16.7 51.1301 16.5223 51.4681 16.167C51.8148 15.803 51.9881 15.3393 51.9881 14.776C51.9881 14.2127 51.8148 13.7533 51.4681 13.398C51.1301 13.034 50.6925 12.852 50.1551 12.852C49.6265 12.852 49.1888 13.0297 48.8421 13.385C48.4955 13.7403 48.3221 14.1997 48.3221 14.763C48.3221 15.3263 48.4955 15.79 48.8421 16.154C49.1888 16.518 49.6265 16.7 50.1551 16.7ZM62.2402 18.156C61.7549 18.156 61.3302 18.065 60.9662 17.883C60.6022 17.701 60.3076 17.4453 60.0822 17.116L59.9002 18H58.4182V8.64H60.0822V12.475C60.2902 12.189 60.5632 11.9377 60.9012 11.721C61.2479 11.5043 61.6942 11.396 62.2402 11.396C62.8469 11.396 63.3886 11.5433 63.8652 11.838C64.3419 12.1327 64.7189 12.5357 64.9962 13.047C65.2736 13.5583 65.4122 14.139 65.4122 14.789C65.4122 15.439 65.2736 16.0197 64.9962 16.531C64.7189 17.0337 64.3419 17.4323 63.8652 17.727C63.3886 18.013 62.8469 18.156 62.2402 18.156ZM61.8892 16.7C62.4179 16.7 62.8556 16.5223 63.2022 16.167C63.5489 15.8117 63.7222 15.3523 63.7222 14.789C63.7222 14.2257 63.5489 13.762 63.2022 13.398C62.8556 13.034 62.4179 12.852 61.8892 12.852C61.3519 12.852 60.9099 13.034 60.5632 13.398C60.2252 13.7533 60.0562 14.2127 60.0562 14.776C60.0562 15.3393 60.2252 15.803 60.5632 16.167C60.9099 16.5223 61.3519 16.7 61.8892 16.7ZM67.1207 20.86L68.6157 17.571H68.2257L65.7167 11.552H67.5237L69.3307 16.089L71.2157 11.552H72.9837L68.8887 20.86H67.1207Z" fill="#0A2937" fill-opacity="0.3"/>
</svg>
