<svg xmlns="http://www.w3.org/2000/svg" width="48" height="48" viewBox="0.5 -0.5 49 49" fill="none"><path d="M1 24C1 4.236 5.236 0 25 0C44.764 0 49 4.236 49 24C49 43.764 44.764 48 25 48C5.236 48 1 43.764 1 24Z" fill="url(#paint0_linear_808_27)"/><g filter="url(#filter0_d_808_27)"><path d="M15 18.6C15 17.7163 15.7163 17 16.6 17H31.4C32.2837 17 33 17.7163 33 18.6V33.7609C33 34.8626 31.7074 35.4143 30.9515 34.6353L28.8186 32.4375C28.2 31.8 27.3637 31.8 27 31.8H16.6C15.7163 31.8 15 31.0837 15 30.2V18.6Z" fill="url(#paint1_linear_808_27)"/></g><g filter="url(#filter1_f_808_27)"><rect x="17" y="27" width="15" height="15" rx="7.5" fill="white"/></g><path d="M33 24C31.6772 24 30.4829 23.7038 29.4173 23.1115C28.3701 22.5192 27.5341 21.7026 26.9094 20.6615C26.3031 19.6026 26 18.3821 26 17C26 15.6179 26.3123 14.4064 26.937 13.3654C27.5617 12.3064 28.3976 11.4808 29.4449 10.8885C30.5105 10.2962 31.7047 10 33.0276 10C34.332 10 35.5079 10.2962 36.5551 10.8885C37.6207 11.4808 38.4567 12.3064 39.063 13.3654C39.6877 14.4064 40 15.6179 40 17C40 18.3821 39.6877 19.6026 39.063 20.6615C38.4567 21.7026 37.6207 22.5192 36.5551 23.1115C35.4895 23.7038 34.3045 24 33 24Z" fill="url(#paint2_linear_808_27)"/><path d="M1.25 24C1.25 19.0647 1.51477 15.1159 2.21473 11.9663C2.91407 8.81958 4.04448 6.48608 5.76528 4.76528C7.48608 3.04448 9.81958 1.91407 12.9663 1.21473C16.1159 0.514771 20.0647 0.25 25 0.25C29.9353 0.25 33.8841 0.514771 37.0337 1.21473C40.1804 1.91407 42.5139 3.04448 44.2347 4.76528C45.9555 6.48608 47.0859 8.81958 47.7853 11.9663C48.4852 15.1159 48.75 19.0647 48.75 24C48.75 28.9353 48.4852 32.8841 47.7853 36.0337C47.0859 39.1804 45.9555 41.5139 44.2347 43.2347C42.5139 44.9555 40.1804 46.0859 37.0337 46.7853C33.8841 47.4852 29.9353 47.75 25 47.75C20.0647 47.75 16.1159 47.4852 12.9663 46.7853C9.81958 46.0859 7.48608 44.9555 5.76528 43.2347C4.04448 41.5139 2.91407 39.1804 2.21473 36.0337C1.51477 32.8841 1.25 28.9353 1.25 24Z" stroke="black" stroke-opacity="0.1" stroke-width="0.5"/><defs><filter id="filter0_d_808_27" x="13" y="16" width="22" height="22" filterUnits="userSpaceOnUse" color-interpolation-filters="sRGB"><feFlood flood-opacity="0" result="BackgroundImageFix"/><feColorMatrix in="SourceAlpha" type="matrix" values="0 0 0 0 0 0 0 0 0 0 0 0 0 0 0 0 0 0 127 0" result="hardAlpha"/><feOffset dy="1"/><feGaussianBlur stdDeviation="1"/><feComposite in2="hardAlpha" operator="out"/><feColorMatrix type="matrix" values="0 0 0 0 1 0 0 0 0 1 0 0 0 0 1 0 0 0 0.5 0"/><feBlend mode="normal" in2="BackgroundImageFix" result="effect1_dropShadow_808_27"/><feBlend mode="normal" in="SourceGraphic" in2="effect1_dropShadow_808_27" result="shape"/></filter><filter id="filter1_f_808_27" x="0" y="10" width="49" height="49" filterUnits="userSpaceOnUse" color-interpolation-filters="sRGB"><feFlood flood-opacity="0" result="BackgroundImageFix"/><feBlend mode="normal" in="SourceGraphic" in2="BackgroundImageFix" result="shape"/><feGaussianBlur stdDeviation="8.5" result="effect1_foregroundBlur_808_27"/></filter><linearGradient id="paint0_linear_808_27" x1="25" y1="0" x2="25" y2="48" gradientUnits="userSpaceOnUse"><stop stop-color="#8DDBFF"/><stop offset="1" stop-color="#C8EDFF"/></linearGradient><linearGradient id="paint1_linear_808_27" x1="24" y1="17" x2="24" y2="35" gradientUnits="userSpaceOnUse"><stop stop-color="#006DBC"/><stop offset="1" stop-color="#00A3EF"/></linearGradient><linearGradient id="paint2_linear_808_27" x1="33" y1="24" x2="33.3195" y2="10.0073" gradientUnits="userSpaceOnUse"><stop stop-color="white"/><stop offset="0.485" stop-color="#FFB800"/><stop offset="1" stop-color="#FF9900"/></linearGradient></defs></svg>