<svg width="50" height="22" viewBox="0 0 50 22" fill="none" xmlns="http://www.w3.org/2000/svg">
<path d="M44.1911 14.775C44.9744 15.4083 46.0161 15.725 47.3161 15.725H49.4911V13H47.9411C47.3078 13 46.8578 12.8917 46.5911 12.675C46.3411 12.4417 46.2161 12.025 46.2161 11.425V6H49.5661V3.325H46.2161V0H43.3911L43.0161 3.325H40.8911V6H43.0161V11.4C43.0161 13.0167 43.4078 14.1417 44.1911 14.775Z" fill="#0A2937"/>
<path fill-rule="evenodd" clip-rule="evenodd" d="M30.8183 15.2C31.7849 15.75 32.8683 16.025 34.0683 16.025C35.2516 16.025 36.3266 15.75 37.2933 15.2C38.2599 14.65 39.0183 13.8917 39.5683 12.925C40.1349 11.9417 40.4183 10.8083 40.4183 9.52499C40.4183 8.24166 40.1349 7.11666 39.5683 6.14999C39.0183 5.16666 38.2599 4.39999 37.2933 3.84999C36.3433 3.29999 35.2766 3.02499 34.0933 3.02499C32.8933 3.02499 31.8099 3.29999 30.8433 3.84999C29.8933 4.39999 29.1349 5.16666 28.5683 6.14999C28.0016 7.11666 27.7183 8.24166 27.7183 9.52499C27.7183 10.8083 27.9933 11.9417 28.5433 12.925C29.1099 13.8917 29.8683 14.65 30.8183 15.2ZM36.2433 12.325C35.6266 12.9417 34.9016 13.25 34.0683 13.25C33.2349 13.25 32.5099 12.9417 31.8933 12.325C31.2933 11.6917 30.9933 10.7583 30.9933 9.52499C30.9933 8.29166 31.2933 7.36666 31.8933 6.74999C32.5099 6.11666 33.2433 5.79999 34.0933 5.79999C34.9099 5.79999 35.6266 6.11666 36.2433 6.74999C36.8599 7.36666 37.1683 8.29166 37.1683 9.52499C37.1683 10.7583 36.8599 11.6917 36.2433 12.325Z" fill="#0A2937"/>
<path fill-rule="evenodd" clip-rule="evenodd" d="M12.8098 21.225V3.32499H15.6598L16.0098 5.09999C16.4098 4.54999 16.9348 4.06666 17.5848 3.64999C18.2515 3.23333 19.1098 3.02499 20.1598 3.02499C21.3265 3.02499 22.3681 3.30833 23.2848 3.87499C24.2015 4.44166 24.9265 5.21666 25.4598 6.19999C25.9931 7.18333 26.2598 8.29999 26.2598 9.54999C26.2598 10.8 25.9931 11.9167 25.4598 12.9C24.9265 13.8667 24.2015 14.6333 23.2848 15.2C22.3681 15.75 21.3265 16.025 20.1598 16.025C19.2265 16.025 18.4098 15.85 17.7098 15.5C17.0098 15.15 16.4431 14.6583 16.0098 14.025V21.225H12.8098ZM19.4848 13.225C20.5015 13.225 21.3431 12.8833 22.0098 12.2C22.6765 11.5167 23.0098 10.6333 23.0098 9.54999C23.0098 8.46666 22.6765 7.57499 22.0098 6.87499C21.3431 6.17499 20.5015 5.82499 19.4848 5.82499C18.4515 5.82499 17.6015 6.17499 16.9348 6.87499C16.2848 7.55833 15.9598 8.44166 15.9598 9.52499C15.9598 10.6083 16.2848 11.5 16.9348 12.2C17.6015 12.8833 18.4515 13.225 19.4848 13.225Z" fill="#0A2937"/>
<path d="M2.9 15.5C3.73333 15.85 4.7 16.025 5.8 16.025C6.86667 16.025 7.79167 15.85 8.575 15.5C9.35833 15.15 9.95833 14.6667 10.375 14.05C10.7917 13.4333 10.9917 12.7417 10.975 11.975C10.975 11.0917 10.7583 10.4167 10.325 9.94999C9.89167 9.46666 9.30833 9.10833 8.575 8.87499C7.85833 8.62499 7.06667 8.39999 6.2 8.19999C5.4 8.01666 4.75833 7.81666 4.275 7.59999C3.79167 7.38333 3.55 7.09166 3.55 6.72499C3.55 6.37499 3.70833 6.08333 4.025 5.84999C4.35833 5.61666 4.825 5.49999 5.425 5.49999C6.625 5.49999 7.31667 5.95833 7.5 6.87499H10.525C10.3583 5.67499 9.83333 4.73333 8.95 4.04999C8.08333 3.36666 6.91667 3.02499 5.45 3.02499C3.86667 3.02499 2.63333 3.39999 1.75 4.14999C0.883333 4.89999 0.45 5.82499 0.45 6.92499C0.45 7.52499 0.591667 8.03333 0.875 8.44999C1.15833 8.84999 1.525 9.18333 1.975 9.44999C2.44167 9.69999 2.95 9.90833 3.5 10.075C4.05 10.2417 4.59167 10.3833 5.125 10.5C5.95833 10.6833 6.60833 10.875 7.075 11.075C7.54167 11.2583 7.775 11.6167 7.775 12.15C7.775 12.5167 7.60833 12.8417 7.275 13.125C6.95833 13.4083 6.45 13.55 5.75 13.55C5.05 13.55 4.475 13.3833 4.025 13.05C3.59167 12.7 3.325 12.2833 3.225 11.8H0C0.1 12.6333 0.4 13.3667 0.9 14C1.4 14.6333 2.06667 15.1333 2.9 15.5Z" fill="#0A2937"/>
</svg>
