<svg width="914" height="914" viewBox="0 0 914 914" fill="none" xmlns="http://www.w3.org/2000/svg">
<path d="M0.4 457C0.4 362.924 5.44132 287.354 18.874 226.912C32.3056 166.475 54.1221 121.189 87.6555 87.6555C121.189 54.1221 166.475 32.3056 226.912 18.874C287.354 5.44132 362.924 0.4 457 0.4C551.076 0.4 626.646 5.44132 687.088 18.874C747.525 32.3056 792.811 54.1221 826.344 87.6555C859.878 121.189 881.694 166.475 895.126 226.912C908.559 287.354 913.6 362.924 913.6 457C913.6 551.076 908.559 626.646 895.126 687.088C881.694 747.525 859.878 792.811 826.344 826.344C792.811 859.878 747.525 881.694 687.088 895.126C626.646 908.559 551.076 913.6 457 913.6C362.924 913.6 287.354 908.559 226.912 895.126C166.475 881.694 121.189 859.878 87.6555 826.344C54.1221 792.811 32.3056 747.525 18.874 687.088C5.44132 626.646 0.4 551.076 0.4 457Z" stroke="black" stroke-opacity="0.08" stroke-width="0.8"/>
</svg>
