<svg width="1070" height="1070" viewBox="0 0 1070 1070" fill="none" xmlns="http://www.w3.org/2000/svg">
<path d="M0.35 535C0.35 424.865 6.25175 336.386 21.9799 265.616C37.7072 194.849 63.2551 141.811 102.533 102.533C141.811 63.2551 194.849 37.7072 265.616 21.9799C336.386 6.25175 424.865 0.35 535 0.35C645.135 0.35 733.614 6.25175 804.384 21.9799C875.151 37.7072 928.19 63.2551 967.467 102.533C1006.74 141.811 1032.29 194.849 1048.02 265.616C1063.75 336.386 1069.65 424.865 1069.65 535C1069.65 645.135 1063.75 733.614 1048.02 804.384C1032.29 875.151 1006.74 928.19 967.467 967.467C928.19 1006.74 875.151 1032.29 804.384 1048.02C733.614 1063.75 645.135 1069.65 535 1069.65C424.865 1069.65 336.386 1063.75 265.616 1048.02C194.849 1032.29 141.811 1006.74 102.533 967.467C63.2551 928.19 37.7072 875.151 21.9799 804.384C6.25175 733.614 0.35 645.135 0.35 535Z" stroke="black" stroke-opacity="0.08" stroke-width="0.7"/>
</svg>
