<svg width="630" height="630" viewBox="0 0 630 630" fill="none" xmlns="http://www.w3.org/2000/svg">
<path d="M0.6 315C0.6 250.163 4.07489 198.102 13.326 156.476C22.5756 114.857 37.5915 83.7052 60.6483 60.6483C83.7052 37.5915 114.857 22.5756 156.476 13.326C198.102 4.07489 250.163 0.6 315 0.6C379.837 0.6 431.898 4.07489 473.524 13.326C515.143 22.5756 546.295 37.5915 569.352 60.6483C592.409 83.7052 607.424 114.857 616.674 156.476C625.925 198.102 629.4 250.163 629.4 315C629.4 379.837 625.925 431.898 616.674 473.524C607.424 515.143 592.409 546.295 569.352 569.352C546.295 592.409 515.143 607.424 473.524 616.674C431.898 625.925 379.837 629.4 315 629.4C250.163 629.4 198.102 625.925 156.476 616.674C114.857 607.424 83.7052 592.409 60.6483 569.352C37.5915 546.295 22.5756 515.143 13.326 473.524C4.07489 431.898 0.6 379.837 0.6 315Z" stroke="black" stroke-opacity="0.16" stroke-width="1.2"/>
</svg>
