<svg width="766" height="766" viewBox="0 0 766 766" fill="none" xmlns="http://www.w3.org/2000/svg">
<path d="M0.5 383C0.5 304.161 4.72501 240.842 15.9786 190.205C27.231 139.574 45.5038 101.653 73.5784 73.5784C101.653 45.5038 139.574 27.231 190.205 15.9786C240.842 4.72501 304.161 0.5 383 0.5C461.839 0.5 525.158 4.72501 575.795 15.9786C626.426 27.231 664.347 45.5038 692.422 73.5784C720.496 101.653 738.769 139.574 750.021 190.205C761.275 240.842 765.5 304.161 765.5 383C765.5 461.839 761.275 525.158 750.021 575.795C738.769 626.426 720.496 664.347 692.422 692.422C664.347 720.496 626.426 738.769 575.795 750.021C525.158 761.275 461.839 765.5 383 765.5C304.161 765.5 240.842 761.275 190.205 750.021C139.574 738.769 101.653 720.496 73.5784 692.422C45.5038 664.347 27.231 626.426 15.9786 575.795C4.72501 525.158 0.5 461.839 0.5 383Z" stroke="black" stroke-opacity="0.12"/>
</svg>
