<svg width="512" height="512" viewBox="0 0 512 512" fill="none" xmlns="http://www.w3.org/2000/svg">
<path d="M342.5 107.6C355.9 107.6 368.2 110.7 379 116.8C389.9 122.9 398.6 131.5 404.8 142.3V142.4C411.2 153.1 414.4 165.7 414.4 179.9C414.4 194.1 411.2 206.8 404.8 217.7V217.8C398.6 228.5 389.9 237 379 243C368 249.1 355.7 252.2 342.2 252.2C328.6 252.2 316.1 249.1 305.2 243C294.5 236.9 285.7 228.4 279.3 217.8C273.1 206.9 269.9 194.2 269.9 179.9C269.9 165.7 273.1 153 279.6 142.4C286 131.5 294.7 122.9 305.5 116.9C316.4 110.7 328.9 107.6 342.5 107.6ZM342.5 106C328.5 106 315.9 109.1 304.7 115.4C293.7 121.6 284.8 130.4 278.2 141.5C271.6 152.5 268.3 165.2 268.3 179.9C268.3 194.5 271.5 207.4 277.9 218.6C284.5 229.6 293.3 238.2 304.4 244.4C315.6 250.6 328.2 253.8 342.2 253.8C356 253.8 368.5 250.7 379.7 244.4C390.9 238.2 399.8 229.5 406.1 218.6C412.7 207.4 416 194.6 416 179.9C416 165.3 412.7 152.5 406.1 141.5C399.7 130.3 390.9 121.6 379.7 115.4C368.7 109.1 356.3 106 342.5 106Z" fill="url(#paint0_linear_1138_157)"/>
<path d="M324.2 183.2C332.3 183.2 338.9 189.8 338.9 197.9V359.6C338.9 366.4 333.6 370.4 328.4 370.4C326.5 370.4 323.7 369.9 321.2 367.2L298.4 343.8C291.1 336.3 281.4 336.3 277.3 336.3H166.4C158.3 336.3 151.7 329.7 151.7 321.6V197.9C151.7 189.8 158.3 183.2 166.4 183.2H324.2ZM324.2 181.6H166.4C157.4 181.6 150.1 188.9 150.1 197.9V321.6C150.1 330.6 157.4 337.9 166.4 337.9H277.3C281.2 337.9 290.4 337.9 297.2 344.9L320 368.3C322.4 370.8 325.4 371.9 328.4 371.9C334.6 371.9 340.5 367 340.5 359.5V197.9C340.5 188.9 333.2 181.6 324.2 181.6Z" fill="url(#paint1_linear_1138_157)"/>
<path d="M0.7 256C0.7 203.312 3.52406 161.021 11.0373 127.214C18.5488 93.4151 30.738 68.1399 49.439 49.439C68.1399 30.738 93.4151 18.5488 127.214 11.0373C161.021 3.52406 203.312 0.7 256 0.7C308.688 0.7 350.979 3.52406 384.786 11.0373C418.585 18.5488 443.86 30.738 462.561 49.439C481.262 68.1399 493.451 93.4151 500.963 127.214C508.476 161.021 511.3 203.312 511.3 256C511.3 308.688 508.476 350.979 500.963 384.786C493.451 418.585 481.262 443.86 462.561 462.561C443.86 481.262 418.585 493.451 384.786 500.963C350.979 508.476 308.688 511.3 256 511.3C203.312 511.3 161.021 508.476 127.214 500.963C93.4151 493.451 68.1399 481.262 49.439 462.561C30.738 443.86 18.5488 418.585 11.0373 384.786C3.52406 350.979 0.7 308.688 0.7 256Z" stroke="black" stroke-opacity="0.18" stroke-width="1.4"/>
<defs>
<linearGradient id="paint0_linear_1138_157" x1="289.181" y1="233.027" x2="395.167" y2="127.041" gradientUnits="userSpaceOnUse">
<stop offset="0.66" stop-color="#D1D1D1"/>
<stop offset="1" stop-color="#FFB800"/>
</linearGradient>
<linearGradient id="paint1_linear_1138_157" x1="353.116" y1="215.38" x2="152.967" y2="330.936" gradientUnits="userSpaceOnUse">
<stop stop-color="#00A3EF"/>
<stop offset="0.4" stop-color="#D1D1D1"/>
</linearGradient>
</defs>
</svg>
