<svg width="22" height="22" viewBox="0 0 22 22" fill="none" xmlns="http://www.w3.org/2000/svg">
<g clip-path="url(#clip0_1_7467)">
<path d="M10.083 3.6665H3.66634C3.18011 3.6665 2.7138 3.85966 2.36998 4.20347C2.02616 4.54729 1.83301 5.01361 1.83301 5.49984V18.3332C1.83301 18.8194 2.02616 19.2857 2.36998 19.6295C2.7138 19.9733 3.18011 20.1665 3.66634 20.1665H16.4997C16.9859 20.1665 17.4522 19.9733 17.796 19.6295C18.1399 19.2857 18.333 18.8194 18.333 18.3332V11.9165" stroke="#AEB9BD" stroke-width="2" stroke-linecap="round" stroke-linejoin="round"/>
<path d="M16.958 2.29171C17.3227 1.92704 17.8173 1.72217 18.333 1.72217C18.8487 1.72217 19.3433 1.92704 19.708 2.29171C20.0727 2.65638 20.2776 3.15099 20.2776 3.66671C20.2776 4.18244 20.0727 4.67704 19.708 5.04171L10.9997 13.75L7.33301 14.6667L8.24967 11L16.958 2.29171Z" stroke="#AEB9BD" stroke-width="2" stroke-linecap="round" stroke-linejoin="round"/>
</g>
<defs>
<clipPath id="clip0_1_7467">
<rect width="22" height="22" fill="white"/>
</clipPath>
</defs>
</svg>
