<svg width="30" height="36" viewBox="0 0 30 36" fill="none" xmlns="http://www.w3.org/2000/svg">
<g filter="url(#filter0_d_111_353)">
<path d="M2 4C2 2.34315 3.34315 1 5 1H20L28 9V30C28 31.6569 26.6569 33 25 33H5C3.34315 33 2 31.6569 2 30V4Z" fill="white"/>
<path d="M2.5 4C2.5 2.61929 3.61929 1.5 5 1.5H19.7929L27.5 9.20711V30C27.5 31.3807 26.3807 32.5 25 32.5H5C3.61929 32.5 2.5 31.3807 2.5 30V4Z" stroke="#C7CCD0"/>
</g>
<g filter="url(#filter1_d_111_353)">
<path d="M26.7929 8.5H23C21.6193 8.5 20.5 7.38071 20.5 6V2.20711L26.7929 8.5Z" stroke="#C7CCD0" shape-rendering="crispEdges"/>
</g>
<defs>
<filter id="filter0_d_111_353" x="0" y="0" width="30" height="36" filterUnits="userSpaceOnUse" color-interpolation-filters="sRGB">
<feFlood flood-opacity="0" result="BackgroundImageFix"/>
<feColorMatrix in="SourceAlpha" type="matrix" values="0 0 0 0 0 0 0 0 0 0 0 0 0 0 0 0 0 0 127 0" result="hardAlpha"/>
<feOffset dy="1"/>
<feGaussianBlur stdDeviation="1"/>
<feComposite in2="hardAlpha" operator="out"/>
<feColorMatrix type="matrix" values="0 0 0 0 0.0392157 0 0 0 0 0.160784 0 0 0 0 0.215686 0 0 0 0.16 0"/>
<feBlend mode="normal" in2="BackgroundImageFix" result="effect1_dropShadow_111_353"/>
<feBlend mode="normal" in="SourceGraphic" in2="effect1_dropShadow_111_353" result="shape"/>
</filter>
<filter id="filter1_d_111_353" x="18" y="0" width="12" height="12" filterUnits="userSpaceOnUse" color-interpolation-filters="sRGB">
<feFlood flood-opacity="0" result="BackgroundImageFix"/>
<feColorMatrix in="SourceAlpha" type="matrix" values="0 0 0 0 0 0 0 0 0 0 0 0 0 0 0 0 0 0 127 0" result="hardAlpha"/>
<feOffset dy="1"/>
<feGaussianBlur stdDeviation="1"/>
<feComposite in2="hardAlpha" operator="out"/>
<feColorMatrix type="matrix" values="0 0 0 0 0.0392157 0 0 0 0 0.160784 0 0 0 0 0.215686 0 0 0 0.16 0"/>
<feBlend mode="normal" in2="BackgroundImageFix" result="effect1_dropShadow_111_353"/>
<feBlend mode="normal" in="SourceGraphic" in2="effect1_dropShadow_111_353" result="shape"/>
</filter>
</defs>
</svg>
