<svg width="16" height="16" viewBox="0 0 16 16" fill="none" xmlns="http://www.w3.org/2000/svg">
<g clip-path="url(#clip0_2769_444)">
<path d="M8.00066 16.0002C9.10523 16.0002 10.0007 15.1047 10.0007 14.0002H6.00066C6.00066 15.1047 6.89609 16.0002 8.00066 16.0002Z" fill="#AEB9BD"/>
<path d="M0.566345 2.06586C0.253926 1.75344 0.253927 1.24691 0.566346 0.934487L0.934975 0.565858C1.24739 0.253438 1.75393 0.253438 2.06635 0.565857L15.435 13.9345C15.7474 14.2469 15.7474 14.7534 15.435 15.0659L15.0663 15.4345C14.7539 15.7469 14.2474 15.7469 13.935 15.4345L0.566345 2.06586Z" fill="#AEB9BD"/>
<path d="M14.1455 12.6447C13.9662 12.8578 13.6992 13.0001 13.3838 13.0002H2.61912C1.876 12.9999 1.39234 12.2177 1.72459 11.5529L2.77147 9.46013C2.92355 9.15596 3.02322 8.82785 3.06541 8.49041L3.67283 3.6281C3.72231 3.23231 3.84898 2.86331 4.03416 2.53338L14.1455 12.6447Z" fill="#AEB9BD"/>
<path d="M9.3535 1.00017C10.8663 1.00037 12.1424 2.12695 12.3301 3.6281L12.9375 8.49041C12.9797 8.82785 13.0793 9.15596 13.2314 9.46013L13.501 9.9992L4.999 1.49822C5.47479 1.18393 6.0423 1.00025 6.64939 1.00017H9.3535Z" fill="#AEB9BD"/>
</g>
<defs>
<clipPath id="clip0_2769_444">
<rect width="16" height="16" fill="white"/>
</clipPath>
</defs>
</svg>
