<svg width="16" height="16" viewBox="0 0 16 16" fill="none" xmlns="http://www.w3.org/2000/svg">
<path d="M6.99762 1H3.00238C2.45076 1 2.00357 1.44772 2.00357 2L2.00357 4.86151C2.00357 4.95213 1.97897 5.04105 1.9324 5.11876L0.187044 8.03116C-0.332226 8.89764 0.291178 10 1.30046 10H4.00119V14C4.00119 14.5523 4.44837 15 5 15C5.55163 15 5.99881 14.5523 5.99881 14V10H8.69954C9.70882 10 10.3322 8.89764 9.81296 8.03115L8.0676 5.11876C8.02103 5.04105 7.99643 4.95213 7.99643 4.86151V2C7.99643 1.44772 7.54925 1 6.99762 1Z" fill="#AEB9BD"/>
<path d="M14.4004 0C15.2837 0.000209181 15.9998 0.716251 16 1.59961V14.7607C16 15.8624 14.7071 16.4147 13.9512 15.6357L11.8184 13.4375C11.1998 12.8001 10.3637 12.7998 10 12.7998H7.5V11.5H8.7041C10.8804 11.4999 12.2242 9.12598 11.1045 7.25977L9.5 4.58398V2C9.5 1.18073 9.10407 0.455961 8.49512 0H14.4004Z" fill="#AEB9BD"/>
</svg>
