<svg width="8" height="8" viewBox="0 0 8 8" fill="none" xmlns="http://www.w3.org/2000/svg">
<path d="M7.83363 2.58775L5.42368 0.16711C5.20154 -0.0560083 4.84129 -0.0556583 4.61958 0.167892L2.75001 2.05304C2.66301 2.14077 2.54995 2.19768 2.42791 2.2152L0.928986 2.43028C0.465606 2.49677 0.276673 3.06608 0.607658 3.39853L1.81263 4.60885L0.116803 7.00052C-0.0615894 7.25211 -0.0329893 7.59632 0.184455 7.81473C0.398464 8.02969 0.734447 8.06133 0.984508 7.89007L3.41927 6.22261L4.62425 7.43293C4.95523 7.76538 5.52203 7.57561 5.58823 7.11018L5.80253 5.60339C5.81986 5.48156 5.87595 5.36862 5.96242 5.28142L7.8344 3.39384C8.0555 3.1709 8.05515 2.81025 7.83363 2.58775Z" fill="#FF9900"/>
</svg>
