<svg width="36" height="34" viewBox="0 0 36 34" fill="none" xmlns="http://www.w3.org/2000/svg">
<g filter="url(#filter0_d_1_7235)">
<path d="M9.43899 23.91L27.375 15.9749C27.5604 15.8934 27.7185 15.7574 27.8296 15.5838C27.9408 15.4103 28 15.2069 28 14.9989C28 14.7909 27.9408 14.5875 27.8296 14.414C27.7185 14.2404 27.5604 14.1045 27.375 14.0229L9.43899 6.08785C9.28368 6.01794 9.11396 5.98903 8.94512 6.00373C8.77628 6.01843 8.61364 6.07629 8.47188 6.17207C8.33012 6.26786 8.2137 6.39856 8.13311 6.55239C8.05252 6.70622 8.01031 6.87834 8.01028 7.05322L8 11.9437C8 12.4741 8.3803 12.9303 8.89423 12.9939L23.4178 14.9989L8.89423 16.9933C8.3803 17.0675 8 17.5237 8 18.0541L8.01028 22.9446C8.01028 23.6978 8.76061 24.2176 9.43899 23.91Z" fill="#00A3EF"/>
</g>
<defs>
<filter id="filter0_d_1_7235" x="0" y="0" width="36" height="34" filterUnits="userSpaceOnUse" color-interpolation-filters="sRGB">
<feFlood flood-opacity="0" result="BackgroundImageFix"/>
<feColorMatrix in="SourceAlpha" type="matrix" values="0 0 0 0 0 0 0 0 0 0 0 0 0 0 0 0 0 0 127 0" result="hardAlpha"/>
<feOffset dy="2"/>
<feGaussianBlur stdDeviation="4"/>
<feComposite in2="hardAlpha" operator="out"/>
<feColorMatrix type="matrix" values="0 0 0 0 0 0 0 0 0 0.639216 0 0 0 0 0.937255 0 0 0 0.3 0"/>
<feBlend mode="normal" in2="BackgroundImageFix" result="effect1_dropShadow_1_7235"/>
<feBlend mode="normal" in="SourceGraphic" in2="effect1_dropShadow_1_7235" result="shape"/>
</filter>
</defs>
</svg>
