<svg width="20" height="18" viewBox="0 0 20 18" fill="none" xmlns="http://www.w3.org/2000/svg">
<path d="M1.43899 17.91L19.375 9.97488C19.5604 9.89336 19.7185 9.75738 19.8296 9.58385C19.9408 9.41032 20 9.20691 20 8.9989C20 8.7909 19.9408 8.58748 19.8296 8.41396C19.7185 8.24043 19.5604 8.10445 19.375 8.02293L1.43899 0.0878516C1.28368 0.0179365 1.11396 -0.0109731 0.945117 0.00373039C0.77628 0.0184339 0.613645 0.076288 0.471884 0.172074C0.330124 0.267859 0.213699 0.398563 0.133111 0.552393C0.0525241 0.706223 0.0103104 0.87834 0.0102785 1.05322L0 5.94369C0 6.47411 0.380305 6.93027 0.89423 6.99392L15.4178 8.9989L0.89423 10.9933C0.380305 11.0675 0 11.5237 0 12.0541L0.0102785 16.9446C0.0102785 17.6978 0.760609 18.2176 1.43899 17.91Z" fill="#00A3EF"/>
</svg>
