<svg width="40" height="40" viewBox="0 0 40 40" fill="none" xmlns="http://www.w3.org/2000/svg">
<circle cx="20" cy="20" r="20" fill="#00A3EF" fill-opacity="0.12"/>
<path d="M24.3333 27.5V25.8333C24.3333 24.9493 23.9821 24.1014 23.357 23.4763C22.7319 22.8512 21.8841 22.5 21 22.5H14.3333C13.4493 22.5 12.6014 22.8512 11.9763 23.4763C11.3512 24.1014 11 24.9493 11 25.8333V27.5" stroke="#00A3EF" stroke-width="2" stroke-linecap="round" stroke-linejoin="round"/>
<path d="M17.6663 19.1667C19.5073 19.1667 20.9997 17.6743 20.9997 15.8333C20.9997 13.9924 19.5073 12.5 17.6663 12.5C15.8254 12.5 14.333 13.9924 14.333 15.8333C14.333 17.6743 15.8254 19.1667 17.6663 19.1667Z" stroke="#00A3EF" stroke-width="2" stroke-linecap="round" stroke-linejoin="round"/>
<path d="M29.333 27.5001V25.8334C29.3325 25.0948 29.0866 24.3774 28.6341 23.7937C28.1817 23.2099 27.5481 22.793 26.833 22.6084" stroke="#00A3EF" stroke-width="2" stroke-linecap="round" stroke-linejoin="round"/>
<path d="M23.5 12.6084C24.217 12.792 24.8525 13.209 25.3064 13.7937C25.7602 14.3783 26.0065 15.0974 26.0065 15.8376C26.0065 16.5777 25.7602 17.2968 25.3064 17.8815C24.8525 18.4661 24.217 18.8831 23.5 19.0667" stroke="#00A3EF" stroke-width="2" stroke-linecap="round" stroke-linejoin="round"/>
</svg>
