<svg width="187" height="28" viewBox="0 0 187 28" fill="none" xmlns="http://www.w3.org/2000/svg">
<path d="M114.875 8.31348H124.293V10.7424H118.397V12.5501H123.867V14.8701H118.397V17.1118H124.463V19.6871H114.875V8.31348Z" fill="#0F1A1F"/>
<path d="M125.839 8.31348H129.119L133.403 14.6045V8.31348H136.714V19.6888H133.403L129.141 13.4437V19.6888H125.837V8.31348H125.839Z" fill="#0F1A1F"/>
<path d="M138.51 8.31348H142.025V16.8871H147.511V19.6888H138.51V8.31348Z" fill="#0F1A1F"/>
<path d="M148.705 8.31348H152.227V19.6888H148.705V8.31348Z" fill="#0F1A1F"/>
<path d="M153.723 8.31348H157.398L159.958 16.499L162.484 8.31348H166.051L161.828 19.6888H158.017L153.723 8.31348Z" fill="#0F1A1F"/>
<path d="M164.744 8.31348H174.16V10.7424H168.268V12.5501H173.735V14.8701H168.268V17.1118H174.332V19.6871H164.744V8.31348Z" fill="#0F1A1F"/>
<path d="M175.549 8.31348H178.832L183.113 14.6045V8.31348H186.425V19.6888H183.113L178.852 13.4437V19.6888H175.547V8.31348H175.549Z" fill="#0F1A1F"/>
<path d="M111.376 11.3755H95.625V16.6231H111.376V11.3755Z" fill="#3FBCED"/>
<path d="M121.002 0H93V5.25106H121.002V0Z" fill="#3FBCED"/>
<path d="M121.002 22.7505H93V27.9998H121.002V22.7505Z" fill="#3FBCED"/>
<path d="M0.897 18V8.9H4.303C5.03967 8.9 5.65067 9.02567 6.136 9.277C6.62133 9.52833 6.981 9.86633 7.215 10.291C7.449 10.7157 7.566 11.201 7.566 11.747C7.566 12.2497 7.45333 12.7133 7.228 13.138C7.00267 13.5627 6.64733 13.9093 6.162 14.178C5.67667 14.438 5.057 14.568 4.303 14.568H2.652V18H0.897ZM2.652 13.151H4.199C4.76233 13.151 5.16533 13.0253 5.408 12.774C5.65933 12.514 5.785 12.1717 5.785 11.747C5.785 11.2963 5.65933 10.9497 5.408 10.707C5.16533 10.4557 4.76233 10.33 4.199 10.33H2.652V13.151ZM11.6073 18.156C10.9833 18.156 10.4199 18.013 9.91727 17.727C9.42327 17.4323 9.02894 17.0293 8.73427 16.518C8.44827 15.998 8.30527 15.4043 8.30527 14.737C8.30527 14.0523 8.44827 13.4543 8.73427 12.943C9.02894 12.423 9.42761 12.02 9.93027 11.734C10.4329 11.4393 10.9963 11.292 11.6203 11.292C12.2529 11.292 12.8163 11.4393 13.3103 11.734C13.8129 12.02 14.2073 12.423 14.4933 12.943C14.7879 13.4543 14.9353 14.048 14.9353 14.724C14.9353 15.4 14.7879 15.998 14.4933 16.518C14.2073 17.0293 13.8129 17.4323 13.3103 17.727C12.8076 18.013 12.2399 18.156 11.6073 18.156ZM11.6073 16.635C11.9019 16.635 12.1619 16.5657 12.3873 16.427C12.6213 16.2883 12.8033 16.076 12.9333 15.79C13.0719 15.504 13.1413 15.1487 13.1413 14.724C13.1413 14.2993 13.0719 13.9483 12.9333 13.671C12.8033 13.385 12.6213 13.1727 12.3873 13.034C12.1619 12.8867 11.9063 12.813 11.6203 12.813C11.3429 12.813 11.0873 12.8867 10.8533 13.034C10.6193 13.1727 10.4329 13.385 10.2943 13.671C10.1643 13.9483 10.0993 14.2993 10.0993 14.724C10.0993 15.1487 10.1643 15.504 10.2943 15.79C10.4329 16.076 10.6149 16.2883 10.8403 16.427C11.0743 16.5657 11.3299 16.635 11.6073 16.635ZM17.519 18L15.595 11.448H17.324L18.598 16.765L18.273 16.752L19.729 11.448H21.679L23.135 16.752L22.797 16.765L24.084 11.448H25.813L23.889 18H22.069L20.522 12.54H20.886L19.339 18H17.519ZM29.8263 18.156C29.1676 18.156 28.5826 18.0173 28.0713 17.74C27.5686 17.454 27.1743 17.0597 26.8883 16.557C26.6109 16.0457 26.4723 15.4563 26.4723 14.789C26.4723 14.1043 26.6109 13.502 26.8883 12.982C27.1656 12.4533 27.5556 12.0417 28.0583 11.747C28.5696 11.4437 29.1589 11.292 29.8263 11.292C30.4763 11.292 31.0439 11.435 31.5293 11.721C32.0146 12.007 32.3916 12.3927 32.6603 12.878C32.9289 13.3633 33.0633 13.9137 33.0633 14.529C33.0633 14.6157 33.0633 14.7153 33.0633 14.828C33.0633 14.932 33.0546 15.0403 33.0373 15.153H27.7203V14.087H31.2953C31.2693 13.6623 31.1176 13.3287 30.8403 13.086C30.5716 12.8433 30.2336 12.722 29.8263 12.722C29.5316 12.722 29.2586 12.7913 29.0073 12.93C28.7559 13.06 28.5566 13.2637 28.4093 13.541C28.2706 13.8183 28.2013 14.1693 28.2013 14.594V14.971C28.2013 15.3263 28.2663 15.6383 28.3963 15.907C28.5349 16.167 28.7256 16.3707 28.9683 16.518C29.2109 16.6567 29.4926 16.726 29.8133 16.726C30.1339 16.726 30.3983 16.6567 30.6063 16.518C30.8229 16.3793 30.9833 16.2017 31.0873 15.985H32.8813C32.7599 16.3923 32.5563 16.7607 32.2703 17.09C31.9843 17.4193 31.6333 17.6793 31.2173 17.87C30.8013 18.0607 30.3376 18.156 29.8263 18.156ZM34.5006 18V11.448H36.0606L36.2296 12.657C36.3856 12.371 36.5806 12.1283 36.8146 11.929C37.0572 11.7297 37.3302 11.5737 37.6336 11.461C37.9456 11.3483 38.2879 11.292 38.6606 11.292V13.151H38.0626C37.8026 13.151 37.5599 13.1813 37.3346 13.242C37.1179 13.3027 36.9272 13.4023 36.7626 13.541C36.5979 13.671 36.4722 13.853 36.3856 14.087C36.2989 14.321 36.2556 14.6157 36.2556 14.971V18H34.5006ZM42.8644 18.156C42.2057 18.156 41.6207 18.0173 41.1094 17.74C40.6067 17.454 40.2124 17.0597 39.9264 16.557C39.649 16.0457 39.5104 15.4563 39.5104 14.789C39.5104 14.1043 39.649 13.502 39.9264 12.982C40.2037 12.4533 40.5937 12.0417 41.0964 11.747C41.6077 11.4437 42.197 11.292 42.8644 11.292C43.5144 11.292 44.082 11.435 44.5674 11.721C45.0527 12.007 45.4297 12.3927 45.6984 12.878C45.967 13.3633 46.1014 13.9137 46.1014 14.529C46.1014 14.6157 46.1014 14.7153 46.1014 14.828C46.1014 14.932 46.0927 15.0403 46.0754 15.153H40.7584V14.087H44.3334C44.3074 13.6623 44.1557 13.3287 43.8784 13.086C43.6097 12.8433 43.2717 12.722 42.8644 12.722C42.5697 12.722 42.2967 12.7913 42.0454 12.93C41.794 13.06 41.5947 13.2637 41.4474 13.541C41.3087 13.8183 41.2394 14.1693 41.2394 14.594V14.971C41.2394 15.3263 41.3044 15.6383 41.4344 15.907C41.573 16.167 41.7637 16.3707 42.0064 16.518C42.249 16.6567 42.5307 16.726 42.8514 16.726C43.172 16.726 43.4364 16.6567 43.6444 16.518C43.861 16.3793 44.0214 16.2017 44.1254 15.985H45.9194C45.798 16.3923 45.5944 16.7607 45.3084 17.09C45.0224 17.4193 44.6714 17.6793 44.2554 17.87C43.8394 18.0607 43.3757 18.156 42.8644 18.156ZM50.4507 18.156C49.8527 18.156 49.3153 18.0087 48.8387 17.714C48.3707 17.4193 48.0023 17.012 47.7337 16.492C47.465 15.972 47.3307 15.387 47.3307 14.737C47.3307 14.0697 47.465 13.4803 47.7337 12.969C48.011 12.449 48.388 12.0417 48.8647 11.747C49.35 11.4437 49.8917 11.292 50.4897 11.292C50.9577 11.292 51.3693 11.3787 51.7247 11.552C52.08 11.7253 52.366 11.9723 52.5827 12.293V8.64H54.3377V18H52.7777L52.5827 17.103C52.4527 17.285 52.288 17.4583 52.0887 17.623C51.898 17.7877 51.6683 17.9177 51.3997 18.013C51.131 18.1083 50.8147 18.156 50.4507 18.156ZM50.8667 16.622C51.2133 16.622 51.5167 16.544 51.7767 16.388C52.0453 16.2233 52.2533 15.998 52.4007 15.712C52.548 15.426 52.6217 15.0967 52.6217 14.724C52.6217 14.3513 52.548 14.022 52.4007 13.736C52.2533 13.45 52.0453 13.229 51.7767 13.073C51.5167 12.9083 51.2133 12.826 50.8667 12.826C50.5373 12.826 50.2383 12.9083 49.9697 13.073C49.701 13.229 49.4887 13.45 49.3327 13.736C49.1853 14.022 49.1117 14.347 49.1117 14.711C49.1117 15.0923 49.1853 15.426 49.3327 15.712C49.4887 15.998 49.6967 16.2233 49.9567 16.388C50.2253 16.544 50.5287 16.622 50.8667 16.622ZM62.9908 18.156C62.6528 18.156 62.3495 18.1127 62.0808 18.026C61.8208 17.9393 61.5868 17.8223 61.3788 17.675C61.1795 17.519 61.0105 17.3457 60.8718 17.155L60.6768 18H59.1168V8.64H60.8718V12.358C61.0798 12.0547 61.3528 11.8033 61.6908 11.604C62.0375 11.396 62.4665 11.292 62.9778 11.292C63.5845 11.292 64.1218 11.4437 64.5898 11.747C65.0665 12.0417 65.4391 12.449 65.7078 12.969C65.9851 13.4803 66.1238 14.0697 66.1238 14.737C66.1238 15.387 65.9851 15.972 65.7078 16.492C65.4391 17.012 65.0708 17.4193 64.6028 17.714C64.1348 18.0087 63.5975 18.156 62.9908 18.156ZM62.5748 16.622C62.9215 16.622 63.2248 16.544 63.4848 16.388C63.7535 16.2233 63.9615 16.0023 64.1088 15.725C64.2561 15.439 64.3298 15.1097 64.3298 14.737C64.3298 14.3643 64.2561 14.035 64.1088 13.749C63.9615 13.4543 63.7535 13.229 63.4848 13.073C63.2248 12.9083 62.9215 12.826 62.5748 12.826C62.2368 12.826 61.9335 12.9083 61.6648 13.073C61.4048 13.229 61.1968 13.45 61.0408 13.736C60.8935 14.022 60.8198 14.3513 60.8198 14.724C60.8198 15.0967 60.8935 15.4303 61.0408 15.725C61.1968 16.011 61.4048 16.232 61.6648 16.388C61.9335 16.544 62.2368 16.622 62.5748 16.622ZM67.8707 20.86L69.4567 17.272H69.0667L66.4407 11.448H68.3517L70.2237 15.673L71.9137 11.448H73.7727L69.7297 20.86H67.8707Z" fill="black" fill-opacity="0.6"/>
</svg>
