<svg width="48" height="48" viewBox="0 0 48 48" fill="none" xmlns="http://www.w3.org/2000/svg">
<path d="M0 0H48V48H0V0Z" fill="black" fill-opacity="0.1"/>
<path d="M36.62 30.492L42 35.87L42.0001 39.2499C42.0001 40.3545 41.1047 41.25 40.0001 41.25H8.00004C6.89548 41.25 6.00006 40.3546 6.00004 39.25L6 35.872L15.88 25.992C16.4425 25.4302 17.205 25.1146 18 25.1146C18.795 25.1146 19.5575 25.4302 20.12 25.992L30.44 36.31C30.5773 36.4574 30.7429 36.5756 30.9269 36.6576C31.1109 36.7395 31.3095 36.7836 31.511 36.7872C31.7124 36.7907 31.9124 36.7537 32.0992 36.6782C32.286 36.6028 32.4556 36.4905 32.5981 36.3481C32.7405 36.2056 32.8528 36.036 32.9282 35.8492C33.0037 35.6624 33.0407 35.4624 33.0372 35.261C33.0336 35.0595 32.9895 34.8609 32.9076 34.6769C32.8256 34.4929 32.7074 34.3273 32.56 34.19L30.62 32.25L32.38 30.492C32.9425 29.9302 33.705 29.6146 34.5 29.6146C35.295 29.6146 36.0575 29.9302 36.62 30.492Z" fill="white"/>
<path d="M26.909 18.659C26.4871 19.081 26.25 19.6533 26.25 20.25C26.25 20.8467 26.4871 21.419 26.909 21.841C27.331 22.2629 27.9033 22.5 28.5 22.5C29.0967 22.5 29.669 22.2629 30.091 21.841C30.5129 21.419 30.75 20.8467 30.75 20.25C30.75 19.6533 30.5129 19.081 30.091 18.659C29.669 18.2371 29.0967 18 28.5 18C27.9033 18 27.331 18.2371 26.909 18.659Z" fill="white"/>
</svg>
