<svg width="18" height="18" viewBox="0 0 18 18" fill="none" xmlns="http://www.w3.org/2000/svg">
<path d="M7.71429 16.7143C7.71429 17.4244 8.28993 18 9 18C9.71007 18 10.2857 17.4244 10.2857 16.7143V10.2857H16.7143C17.4244 10.2857 18 9.71009 18 9C18 8.28991 17.4244 7.71429 16.7143 7.71429H10.2857V1.28571C10.2857 0.575625 9.71007 0 9 0C8.28993 0 7.71429 0.575625 7.71429 1.28571V7.71429H1.28571C0.575644 7.71429 0 8.28991 0 9C0 9.71009 0.575644 10.2857 1.28571 10.2857H7.71429V16.7143Z" fill="white"/>
</svg>
